<mxfile host="app.diagrams.net" agent="Mozilla/5.0 (Windows NT 10.0; Win64; x64) AppleWebKit/537.36 (KHTML, like Gecko) Chrome/137.0.0.0 Safari/537.36 Edg/137.0.0.0" version="27.0.5">
  <diagram name="Page-1" id="0C2Ke3AqtRgk05D2A-U1">
    <mxGraphModel dx="3686" dy="2672" grid="1" gridSize="10" guides="1" tooltips="1" connect="1" arrows="1" fold="1" page="1" pageScale="1" pageWidth="850" pageHeight="1100" math="0" shadow="0">
      <root>
        <mxCell id="0" />
        <mxCell id="1" parent="0" />
        <mxCell id="o6_4bFrQqWOLxrrEGYG6-13" value="include" style="shape=rhombus;perimeter=rhombusPerimeter;whiteSpace=wrap;html=1;align=center;" vertex="1" parent="1">
          <mxGeometry x="-180" y="160" width="120" height="60" as="geometry" />
        </mxCell>
        <mxCell id="o6_4bFrQqWOLxrrEGYG6-14" value="assigned_to" style="shape=rhombus;perimeter=rhombusPerimeter;whiteSpace=wrap;html=1;align=center;" vertex="1" parent="1">
          <mxGeometry x="-20" y="75" width="90" height="60" as="geometry" />
        </mxCell>
        <mxCell id="o6_4bFrQqWOLxrrEGYG6-15" value="rooms" style="rounded=1;arcSize=10;whiteSpace=wrap;html=1;align=center;" vertex="1" parent="1">
          <mxGeometry x="-170" y="290" width="100" height="40" as="geometry" />
        </mxCell>
        <mxCell id="o6_4bFrQqWOLxrrEGYG6-16" value="billing" style="rounded=1;arcSize=10;whiteSpace=wrap;html=1;align=center;" vertex="1" parent="1">
          <mxGeometry x="400" y="500" width="100" height="40" as="geometry" />
        </mxCell>
        <mxCell id="o6_4bFrQqWOLxrrEGYG6-17" value="staff" style="rounded=1;arcSize=10;whiteSpace=wrap;html=1;align=center;" vertex="1" parent="1">
          <mxGeometry x="-170" y="420" width="100" height="40" as="geometry" />
        </mxCell>
        <mxCell id="o6_4bFrQqWOLxrrEGYG6-18" value="users" style="rounded=1;arcSize=10;whiteSpace=wrap;html=1;align=center;" vertex="1" parent="1">
          <mxGeometry x="-170" y="640" width="100" height="40" as="geometry" />
        </mxCell>
        <mxCell id="o6_4bFrQqWOLxrrEGYG6-19" value="departments" style="rounded=1;arcSize=10;whiteSpace=wrap;html=1;align=center;" vertex="1" parent="1">
          <mxGeometry x="-170" y="85" width="100" height="40" as="geometry" />
        </mxCell>
        <mxCell id="o6_4bFrQqWOLxrrEGYG6-20" value="medical records" style="rounded=1;arcSize=10;whiteSpace=wrap;html=1;align=center;" vertex="1" parent="1">
          <mxGeometry x="400" y="300" width="100" height="40" as="geometry" />
        </mxCell>
        <mxCell id="o6_4bFrQqWOLxrrEGYG6-21" value="patients" style="rounded=1;arcSize=10;whiteSpace=wrap;html=1;align=center;" vertex="1" parent="1">
          <mxGeometry x="400" y="85" width="100" height="40" as="geometry" />
        </mxCell>
        <mxCell id="o6_4bFrQqWOLxrrEGYG6-22" value="doctors" style="rounded=1;arcSize=10;whiteSpace=wrap;html=1;align=center;" vertex="1" parent="1">
          <mxGeometry x="130" y="85" width="100" height="40" as="geometry" />
        </mxCell>
        <mxCell id="o6_4bFrQqWOLxrrEGYG6-23" value="Admissions&amp;nbsp;" style="rounded=1;arcSize=10;whiteSpace=wrap;html=1;align=center;" vertex="1" parent="1">
          <mxGeometry x="130" y="420" width="100" height="40" as="geometry" />
        </mxCell>
        <mxCell id="o6_4bFrQqWOLxrrEGYG6-24" value="handles" style="shape=rhombus;perimeter=rhombusPerimeter;whiteSpace=wrap;html=1;align=center;" vertex="1" parent="1">
          <mxGeometry x="-20" y="405" width="80" height="70" as="geometry" />
        </mxCell>
        <mxCell id="o6_4bFrQqWOLxrrEGYG6-25" value="assigned_staff" style="shape=rhombus;perimeter=rhombusPerimeter;whiteSpace=wrap;html=1;align=center;" vertex="1" parent="1">
          <mxGeometry x="-195" y="350" width="150" height="60" as="geometry" />
        </mxCell>
        <mxCell id="o6_4bFrQqWOLxrrEGYG6-26" value="assigned to" style="shape=rhombus;perimeter=rhombusPerimeter;whiteSpace=wrap;html=1;align=center;" vertex="1" parent="1">
          <mxGeometry x="-155" y="520" width="70" height="60" as="geometry" />
        </mxCell>
        <mxCell id="o6_4bFrQqWOLxrrEGYG6-28" value="appointments" style="rounded=1;arcSize=10;whiteSpace=wrap;html=1;align=center;" vertex="1" parent="1">
          <mxGeometry x="280" y="-60" width="100" height="40" as="geometry" />
        </mxCell>
        <mxCell id="o6_4bFrQqWOLxrrEGYG6-31" value="" style="shape=link;html=1;rounded=0;exitX=1;exitY=0.5;exitDx=0;exitDy=0;entryX=0;entryY=0.5;entryDx=0;entryDy=0;" edge="1" parent="1" source="o6_4bFrQqWOLxrrEGYG6-14" target="o6_4bFrQqWOLxrrEGYG6-22">
          <mxGeometry width="100" relative="1" as="geometry">
            <mxPoint x="380" y="410" as="sourcePoint" />
            <mxPoint x="480" y="410" as="targetPoint" />
          </mxGeometry>
        </mxCell>
        <mxCell id="o6_4bFrQqWOLxrrEGYG6-32" value="" style="endArrow=none;html=1;rounded=0;exitX=1;exitY=0.5;exitDx=0;exitDy=0;entryX=0;entryY=0.5;entryDx=0;entryDy=0;" edge="1" parent="1" source="o6_4bFrQqWOLxrrEGYG6-19" target="o6_4bFrQqWOLxrrEGYG6-14">
          <mxGeometry relative="1" as="geometry">
            <mxPoint x="350" y="410" as="sourcePoint" />
            <mxPoint x="510" y="410" as="targetPoint" />
          </mxGeometry>
        </mxCell>
        <mxCell id="o6_4bFrQqWOLxrrEGYG6-34" value="" style="endArrow=none;html=1;rounded=0;exitX=0.5;exitY=1;exitDx=0;exitDy=0;entryX=0.5;entryY=0;entryDx=0;entryDy=0;" edge="1" parent="1" source="o6_4bFrQqWOLxrrEGYG6-15" target="o6_4bFrQqWOLxrrEGYG6-25">
          <mxGeometry relative="1" as="geometry">
            <mxPoint x="350" y="410" as="sourcePoint" />
            <mxPoint x="510" y="410" as="targetPoint" />
          </mxGeometry>
        </mxCell>
        <mxCell id="o6_4bFrQqWOLxrrEGYG6-35" value="" style="shape=link;html=1;rounded=0;exitX=0.5;exitY=1;exitDx=0;exitDy=0;entryX=0.5;entryY=0;entryDx=0;entryDy=0;" edge="1" parent="1" source="o6_4bFrQqWOLxrrEGYG6-25" target="o6_4bFrQqWOLxrrEGYG6-17">
          <mxGeometry width="100" relative="1" as="geometry">
            <mxPoint x="380" y="410" as="sourcePoint" />
            <mxPoint x="480" y="410" as="targetPoint" />
          </mxGeometry>
        </mxCell>
        <mxCell id="o6_4bFrQqWOLxrrEGYG6-36" value="" style="endArrow=none;html=1;rounded=0;exitX=1;exitY=0.5;exitDx=0;exitDy=0;entryX=0;entryY=0.5;entryDx=0;entryDy=0;" edge="1" parent="1" source="o6_4bFrQqWOLxrrEGYG6-17" target="o6_4bFrQqWOLxrrEGYG6-24">
          <mxGeometry relative="1" as="geometry">
            <mxPoint x="200" y="400" as="sourcePoint" />
            <mxPoint x="360" y="400" as="targetPoint" />
          </mxGeometry>
        </mxCell>
        <mxCell id="o6_4bFrQqWOLxrrEGYG6-37" value="" style="endArrow=none;html=1;rounded=0;exitX=1;exitY=0.5;exitDx=0;exitDy=0;" edge="1" parent="1" source="o6_4bFrQqWOLxrrEGYG6-24" target="o6_4bFrQqWOLxrrEGYG6-23">
          <mxGeometry relative="1" as="geometry">
            <mxPoint x="200" y="400" as="sourcePoint" />
            <mxPoint x="360" y="400" as="targetPoint" />
          </mxGeometry>
        </mxCell>
        <mxCell id="o6_4bFrQqWOLxrrEGYG6-38" value="" style="shape=link;html=1;rounded=0;exitX=0.5;exitY=1;exitDx=0;exitDy=0;entryX=0.5;entryY=0;entryDx=0;entryDy=0;" edge="1" parent="1" source="o6_4bFrQqWOLxrrEGYG6-26" target="o6_4bFrQqWOLxrrEGYG6-18">
          <mxGeometry width="100" relative="1" as="geometry">
            <mxPoint x="230" y="400" as="sourcePoint" />
            <mxPoint x="330" y="400" as="targetPoint" />
          </mxGeometry>
        </mxCell>
        <mxCell id="o6_4bFrQqWOLxrrEGYG6-39" value="" style="endArrow=none;html=1;rounded=0;exitX=0.5;exitY=1;exitDx=0;exitDy=0;entryX=0.5;entryY=0;entryDx=0;entryDy=0;" edge="1" parent="1" source="o6_4bFrQqWOLxrrEGYG6-17" target="o6_4bFrQqWOLxrrEGYG6-26">
          <mxGeometry relative="1" as="geometry">
            <mxPoint x="200" y="400" as="sourcePoint" />
            <mxPoint x="360" y="400" as="targetPoint" />
          </mxGeometry>
        </mxCell>
        <mxCell id="o6_4bFrQqWOLxrrEGYG6-44" value="have" style="shape=rhombus;perimeter=rhombusPerimeter;whiteSpace=wrap;html=1;align=center;" vertex="1" parent="1">
          <mxGeometry x="400" y="190" width="100" height="60" as="geometry" />
        </mxCell>
        <mxCell id="o6_4bFrQqWOLxrrEGYG6-45" value="" style="shape=link;html=1;rounded=0;entryX=0.5;entryY=1;entryDx=0;entryDy=0;exitX=0.5;exitY=0;exitDx=0;exitDy=0;" edge="1" parent="1" source="o6_4bFrQqWOLxrrEGYG6-20" target="o6_4bFrQqWOLxrrEGYG6-44">
          <mxGeometry width="100" relative="1" as="geometry">
            <mxPoint x="230" y="400" as="sourcePoint" />
            <mxPoint x="330" y="400" as="targetPoint" />
          </mxGeometry>
        </mxCell>
        <mxCell id="o6_4bFrQqWOLxrrEGYG6-46" value="" style="endArrow=none;html=1;rounded=0;entryX=0.5;entryY=0;entryDx=0;entryDy=0;exitX=0.5;exitY=1;exitDx=0;exitDy=0;" edge="1" parent="1" source="o6_4bFrQqWOLxrrEGYG6-21" target="o6_4bFrQqWOLxrrEGYG6-44">
          <mxGeometry relative="1" as="geometry">
            <mxPoint x="200" y="400" as="sourcePoint" />
            <mxPoint x="390" y="330" as="targetPoint" />
          </mxGeometry>
        </mxCell>
        <mxCell id="o6_4bFrQqWOLxrrEGYG6-47" value="outputs" style="shape=rhombus;perimeter=rhombusPerimeter;whiteSpace=wrap;html=1;align=center;" vertex="1" parent="1">
          <mxGeometry x="400" y="380" width="100" height="60" as="geometry" />
        </mxCell>
        <mxCell id="o6_4bFrQqWOLxrrEGYG6-49" value="" style="shape=link;html=1;rounded=0;entryX=0.57;entryY=0.075;entryDx=0;entryDy=0;entryPerimeter=0;exitX=0.5;exitY=1;exitDx=0;exitDy=0;" edge="1" parent="1" source="o6_4bFrQqWOLxrrEGYG6-47" target="o6_4bFrQqWOLxrrEGYG6-16">
          <mxGeometry width="100" relative="1" as="geometry">
            <mxPoint x="230" y="400" as="sourcePoint" />
            <mxPoint x="330" y="400" as="targetPoint" />
          </mxGeometry>
        </mxCell>
        <mxCell id="o6_4bFrQqWOLxrrEGYG6-50" value="" style="endArrow=none;html=1;rounded=0;entryX=0.5;entryY=1;entryDx=0;entryDy=0;exitX=0.5;exitY=0;exitDx=0;exitDy=0;" edge="1" parent="1" source="o6_4bFrQqWOLxrrEGYG6-47" target="o6_4bFrQqWOLxrrEGYG6-20">
          <mxGeometry relative="1" as="geometry">
            <mxPoint x="200" y="400" as="sourcePoint" />
            <mxPoint x="360" y="400" as="targetPoint" />
          </mxGeometry>
        </mxCell>
        <mxCell id="o6_4bFrQqWOLxrrEGYG6-51" value="" style="shape=link;html=1;rounded=0;exitX=0.5;exitY=0;exitDx=0;exitDy=0;entryX=0.5;entryY=1;entryDx=0;entryDy=0;" edge="1" parent="1" source="o6_4bFrQqWOLxrrEGYG6-15" target="o6_4bFrQqWOLxrrEGYG6-13">
          <mxGeometry width="100" relative="1" as="geometry">
            <mxPoint x="230" y="400" as="sourcePoint" />
            <mxPoint x="330" y="400" as="targetPoint" />
          </mxGeometry>
        </mxCell>
        <mxCell id="o6_4bFrQqWOLxrrEGYG6-52" value="" style="endArrow=none;html=1;rounded=0;entryX=0.5;entryY=1;entryDx=0;entryDy=0;exitX=0.5;exitY=0;exitDx=0;exitDy=0;" edge="1" parent="1" source="o6_4bFrQqWOLxrrEGYG6-13" target="o6_4bFrQqWOLxrrEGYG6-19">
          <mxGeometry relative="1" as="geometry">
            <mxPoint x="200" y="400" as="sourcePoint" />
            <mxPoint x="360" y="400" as="targetPoint" />
          </mxGeometry>
        </mxCell>
        <mxCell id="o6_4bFrQqWOLxrrEGYG6-53" value="schedules" style="shape=rhombus;perimeter=rhombusPerimeter;whiteSpace=wrap;html=1;align=center;" vertex="1" parent="1">
          <mxGeometry x="120" y="-20" width="120" height="60" as="geometry" />
        </mxCell>
        <mxCell id="o6_4bFrQqWOLxrrEGYG6-54" value="booked_by" style="shape=rhombus;perimeter=rhombusPerimeter;whiteSpace=wrap;html=1;align=center;" vertex="1" parent="1">
          <mxGeometry x="410" y="-30" width="120" height="60" as="geometry" />
        </mxCell>
        <mxCell id="o6_4bFrQqWOLxrrEGYG6-55" value="" style="endArrow=none;html=1;rounded=0;exitX=0.5;exitY=0;exitDx=0;exitDy=0;entryX=0.5;entryY=1;entryDx=0;entryDy=0;" edge="1" parent="1" source="o6_4bFrQqWOLxrrEGYG6-22" target="o6_4bFrQqWOLxrrEGYG6-53">
          <mxGeometry relative="1" as="geometry">
            <mxPoint x="200" y="170" as="sourcePoint" />
            <mxPoint x="360" y="170" as="targetPoint" />
          </mxGeometry>
        </mxCell>
        <mxCell id="o6_4bFrQqWOLxrrEGYG6-56" value="" style="shape=link;html=1;rounded=0;exitX=0.5;exitY=0;exitDx=0;exitDy=0;entryX=0;entryY=0.5;entryDx=0;entryDy=0;" edge="1" parent="1" source="o6_4bFrQqWOLxrrEGYG6-53" target="o6_4bFrQqWOLxrrEGYG6-28">
          <mxGeometry width="100" relative="1" as="geometry">
            <mxPoint x="230" y="170" as="sourcePoint" />
            <mxPoint x="330" y="170" as="targetPoint" />
          </mxGeometry>
        </mxCell>
        <mxCell id="o6_4bFrQqWOLxrrEGYG6-57" value="" style="shape=link;html=1;rounded=0;entryX=1;entryY=0.5;entryDx=0;entryDy=0;exitX=0;exitY=0;exitDx=0;exitDy=0;" edge="1" parent="1" source="o6_4bFrQqWOLxrrEGYG6-54" target="o6_4bFrQqWOLxrrEGYG6-28">
          <mxGeometry width="100" relative="1" as="geometry">
            <mxPoint x="230" y="170" as="sourcePoint" />
            <mxPoint x="330" y="170" as="targetPoint" />
          </mxGeometry>
        </mxCell>
        <mxCell id="o6_4bFrQqWOLxrrEGYG6-58" value="" style="endArrow=none;html=1;rounded=0;entryX=0.5;entryY=1;entryDx=0;entryDy=0;exitX=0.5;exitY=0;exitDx=0;exitDy=0;" edge="1" parent="1" source="o6_4bFrQqWOLxrrEGYG6-21" target="o6_4bFrQqWOLxrrEGYG6-54">
          <mxGeometry relative="1" as="geometry">
            <mxPoint x="200" y="170" as="sourcePoint" />
            <mxPoint x="360" y="170" as="targetPoint" />
          </mxGeometry>
        </mxCell>
        <mxCell id="o6_4bFrQqWOLxrrEGYG6-59" value="writes" style="shape=rhombus;perimeter=rhombusPerimeter;whiteSpace=wrap;html=1;align=center;" vertex="1" parent="1">
          <mxGeometry x="110" y="240" width="120" height="60" as="geometry" />
        </mxCell>
        <mxCell id="o6_4bFrQqWOLxrrEGYG6-60" value="" style="endArrow=none;html=1;rounded=0;entryX=0.5;entryY=1;entryDx=0;entryDy=0;exitX=0.5;exitY=0;exitDx=0;exitDy=0;" edge="1" parent="1" source="o6_4bFrQqWOLxrrEGYG6-59" target="o6_4bFrQqWOLxrrEGYG6-22">
          <mxGeometry relative="1" as="geometry">
            <mxPoint x="200" y="270" as="sourcePoint" />
            <mxPoint x="360" y="270" as="targetPoint" />
          </mxGeometry>
        </mxCell>
        <mxCell id="o6_4bFrQqWOLxrrEGYG6-61" value="" style="shape=link;html=1;rounded=0;entryX=0;entryY=0.5;entryDx=0;entryDy=0;" edge="1" parent="1" target="o6_4bFrQqWOLxrrEGYG6-20">
          <mxGeometry width="100" relative="1" as="geometry">
            <mxPoint x="230" y="270" as="sourcePoint" />
            <mxPoint x="330" y="270" as="targetPoint" />
          </mxGeometry>
        </mxCell>
        <mxCell id="o6_4bFrQqWOLxrrEGYG6-62" value="1" style="text;html=1;align=center;verticalAlign=middle;whiteSpace=wrap;rounded=0;" vertex="1" parent="1">
          <mxGeometry x="170" y="55" width="60" height="30" as="geometry" />
        </mxCell>
        <mxCell id="o6_4bFrQqWOLxrrEGYG6-63" value="M" style="text;html=1;align=center;verticalAlign=middle;whiteSpace=wrap;rounded=0;" vertex="1" parent="1">
          <mxGeometry x="230" y="-30" width="60" height="30" as="geometry" />
        </mxCell>
        <mxCell id="o6_4bFrQqWOLxrrEGYG6-64" value="1" style="text;html=1;align=center;verticalAlign=middle;whiteSpace=wrap;rounded=0;" vertex="1" parent="1">
          <mxGeometry x="450" y="60" width="60" height="30" as="geometry" />
        </mxCell>
        <mxCell id="o6_4bFrQqWOLxrrEGYG6-65" value="M" style="text;html=1;align=center;verticalAlign=middle;whiteSpace=wrap;rounded=0;" vertex="1" parent="1">
          <mxGeometry x="380" y="-60" width="60" height="30" as="geometry" />
        </mxCell>
        <mxCell id="o6_4bFrQqWOLxrrEGYG6-66" value="M" style="text;html=1;align=center;verticalAlign=middle;whiteSpace=wrap;rounded=0;" vertex="1" parent="1">
          <mxGeometry x="80" y="75" width="60" height="30" as="geometry" />
        </mxCell>
        <mxCell id="o6_4bFrQqWOLxrrEGYG6-67" value="1" style="text;html=1;align=center;verticalAlign=middle;whiteSpace=wrap;rounded=0;" vertex="1" parent="1">
          <mxGeometry x="-80" y="70" width="60" height="30" as="geometry" />
        </mxCell>
        <mxCell id="o6_4bFrQqWOLxrrEGYG6-69" value="1" style="text;html=1;align=center;verticalAlign=middle;whiteSpace=wrap;rounded=0;" vertex="1" parent="1">
          <mxGeometry x="-180" y="135" width="60" height="30" as="geometry" />
        </mxCell>
        <mxCell id="o6_4bFrQqWOLxrrEGYG6-70" value="M" style="text;html=1;align=center;verticalAlign=middle;whiteSpace=wrap;rounded=0;" vertex="1" parent="1">
          <mxGeometry x="-190" y="260" width="60" height="30" as="geometry" />
        </mxCell>
        <mxCell id="o6_4bFrQqWOLxrrEGYG6-71" value="1" style="text;html=1;align=center;verticalAlign=middle;whiteSpace=wrap;rounded=0;" vertex="1" parent="1">
          <mxGeometry x="-180" y="330" width="60" height="30" as="geometry" />
        </mxCell>
        <mxCell id="o6_4bFrQqWOLxrrEGYG6-72" value="M" style="text;html=1;align=center;verticalAlign=middle;whiteSpace=wrap;rounded=0;" vertex="1" parent="1">
          <mxGeometry x="-195" y="390" width="60" height="30" as="geometry" />
        </mxCell>
        <mxCell id="o6_4bFrQqWOLxrrEGYG6-73" value="1" style="text;html=1;align=center;verticalAlign=middle;whiteSpace=wrap;rounded=0;" vertex="1" parent="1">
          <mxGeometry x="-80" y="420" width="60" height="30" as="geometry" />
        </mxCell>
        <mxCell id="o6_4bFrQqWOLxrrEGYG6-74" value="M" style="text;html=1;align=center;verticalAlign=middle;whiteSpace=wrap;rounded=0;" vertex="1" parent="1">
          <mxGeometry x="80" y="410" width="60" height="30" as="geometry" />
        </mxCell>
        <mxCell id="o6_4bFrQqWOLxrrEGYG6-77" value="M" style="text;html=1;align=center;verticalAlign=middle;whiteSpace=wrap;rounded=0;" vertex="1" parent="1">
          <mxGeometry x="-110" y="610" width="60" height="30" as="geometry" />
        </mxCell>
        <mxCell id="o6_4bFrQqWOLxrrEGYG6-78" value="1" style="text;html=1;align=center;verticalAlign=middle;whiteSpace=wrap;rounded=0;" vertex="1" parent="1">
          <mxGeometry x="-120" y="470" width="60" height="30" as="geometry" />
        </mxCell>
        <mxCell id="o6_4bFrQqWOLxrrEGYG6-79" value="1" style="text;html=1;align=center;verticalAlign=middle;whiteSpace=wrap;rounded=0;" vertex="1" parent="1">
          <mxGeometry x="170" y="135" width="60" height="30" as="geometry" />
        </mxCell>
        <mxCell id="o6_4bFrQqWOLxrrEGYG6-80" value="m" style="text;html=1;align=center;verticalAlign=middle;whiteSpace=wrap;rounded=0;" vertex="1" parent="1">
          <mxGeometry x="340" y="310" width="60" height="30" as="geometry" />
        </mxCell>
        <mxCell id="o6_4bFrQqWOLxrrEGYG6-83" value="1" style="text;html=1;align=center;verticalAlign=middle;whiteSpace=wrap;rounded=0;" vertex="1" parent="1">
          <mxGeometry x="440" y="125" width="60" height="30" as="geometry" />
        </mxCell>
        <mxCell id="o6_4bFrQqWOLxrrEGYG6-84" value="m" style="text;html=1;align=center;verticalAlign=middle;whiteSpace=wrap;rounded=0;" vertex="1" parent="1">
          <mxGeometry x="450" y="270" width="60" height="30" as="geometry" />
        </mxCell>
        <mxCell id="o6_4bFrQqWOLxrrEGYG6-85" value="1" style="text;html=1;align=center;verticalAlign=middle;whiteSpace=wrap;rounded=0;" vertex="1" parent="1">
          <mxGeometry x="450" y="340" width="60" height="30" as="geometry" />
        </mxCell>
        <mxCell id="o6_4bFrQqWOLxrrEGYG6-86" value="1" style="text;html=1;align=center;verticalAlign=middle;whiteSpace=wrap;rounded=0;" vertex="1" parent="1">
          <mxGeometry x="450" y="460" width="60" height="30" as="geometry" />
        </mxCell>
        <mxCell id="o6_4bFrQqWOLxrrEGYG6-87" value="patient_id(fk)" style="ellipse;whiteSpace=wrap;html=1;" vertex="1" parent="1">
          <mxGeometry x="-350" y="-20" width="120" height="80" as="geometry" />
        </mxCell>
        <mxCell id="o6_4bFrQqWOLxrrEGYG6-88" value="name" style="ellipse;whiteSpace=wrap;html=1;align=center;" vertex="1" parent="1">
          <mxGeometry x="-400" y="75" width="100" height="40" as="geometry" />
        </mxCell>
        <mxCell id="o6_4bFrQqWOLxrrEGYG6-89" value="dob" style="ellipse;whiteSpace=wrap;html=1;align=center;" vertex="1" parent="1">
          <mxGeometry x="-390" y="135" width="100" height="40" as="geometry" />
        </mxCell>
        <mxCell id="o6_4bFrQqWOLxrrEGYG6-90" value="gender" style="ellipse;whiteSpace=wrap;html=1;align=center;" vertex="1" parent="1">
          <mxGeometry x="-200" y="-30" width="100" height="40" as="geometry" />
        </mxCell>
        <mxCell id="o6_4bFrQqWOLxrrEGYG6-91" value="phone" style="ellipse;whiteSpace=wrap;html=1;align=center;" vertex="1" parent="1">
          <mxGeometry x="-380" y="190" width="100" height="40" as="geometry" />
        </mxCell>
        <mxCell id="o6_4bFrQqWOLxrrEGYG6-92" value="email&amp;nbsp;" style="ellipse;whiteSpace=wrap;html=1;align=center;" vertex="1" parent="1">
          <mxGeometry x="-90" y="-40" width="100" height="40" as="geometry" />
        </mxCell>
        <mxCell id="o6_4bFrQqWOLxrrEGYG6-93" value="" style="endArrow=none;html=1;rounded=0;exitX=0.5;exitY=1;exitDx=0;exitDy=0;entryX=1;entryY=0;entryDx=0;entryDy=0;" edge="1" parent="1" source="o6_4bFrQqWOLxrrEGYG6-92" target="o6_4bFrQqWOLxrrEGYG6-19">
          <mxGeometry relative="1" as="geometry">
            <mxPoint x="200" y="370" as="sourcePoint" />
            <mxPoint x="360" y="370" as="targetPoint" />
          </mxGeometry>
        </mxCell>
        <mxCell id="o6_4bFrQqWOLxrrEGYG6-94" value="" style="endArrow=none;html=1;rounded=0;exitX=0.5;exitY=1;exitDx=0;exitDy=0;entryX=0.5;entryY=0;entryDx=0;entryDy=0;" edge="1" parent="1" source="o6_4bFrQqWOLxrrEGYG6-90" target="o6_4bFrQqWOLxrrEGYG6-19">
          <mxGeometry relative="1" as="geometry">
            <mxPoint x="200" y="370" as="sourcePoint" />
            <mxPoint x="360" y="370" as="targetPoint" />
          </mxGeometry>
        </mxCell>
        <mxCell id="o6_4bFrQqWOLxrrEGYG6-95" value="" style="endArrow=none;html=1;rounded=0;exitX=1;exitY=1;exitDx=0;exitDy=0;entryX=0.25;entryY=0;entryDx=0;entryDy=0;" edge="1" parent="1" source="o6_4bFrQqWOLxrrEGYG6-87" target="o6_4bFrQqWOLxrrEGYG6-19">
          <mxGeometry relative="1" as="geometry">
            <mxPoint x="200" y="370" as="sourcePoint" />
            <mxPoint x="-180" y="80" as="targetPoint" />
          </mxGeometry>
        </mxCell>
        <mxCell id="o6_4bFrQqWOLxrrEGYG6-96" value="" style="endArrow=none;html=1;rounded=0;exitX=1;exitY=0.5;exitDx=0;exitDy=0;entryX=0;entryY=0.5;entryDx=0;entryDy=0;" edge="1" parent="1" source="o6_4bFrQqWOLxrrEGYG6-88" target="o6_4bFrQqWOLxrrEGYG6-19">
          <mxGeometry relative="1" as="geometry">
            <mxPoint x="200" y="370" as="sourcePoint" />
            <mxPoint x="360" y="370" as="targetPoint" />
          </mxGeometry>
        </mxCell>
        <mxCell id="o6_4bFrQqWOLxrrEGYG6-97" value="" style="endArrow=none;html=1;rounded=0;exitX=1;exitY=0.5;exitDx=0;exitDy=0;entryX=0;entryY=1;entryDx=0;entryDy=0;" edge="1" parent="1" source="o6_4bFrQqWOLxrrEGYG6-89" target="o6_4bFrQqWOLxrrEGYG6-19">
          <mxGeometry relative="1" as="geometry">
            <mxPoint x="200" y="370" as="sourcePoint" />
            <mxPoint x="360" y="370" as="targetPoint" />
          </mxGeometry>
        </mxCell>
        <mxCell id="o6_4bFrQqWOLxrrEGYG6-98" value="" style="endArrow=none;html=1;rounded=0;entryX=1;entryY=0.5;entryDx=0;entryDy=0;exitX=0.25;exitY=1;exitDx=0;exitDy=0;" edge="1" parent="1" source="o6_4bFrQqWOLxrrEGYG6-19" target="o6_4bFrQqWOLxrrEGYG6-91">
          <mxGeometry relative="1" as="geometry">
            <mxPoint x="200" y="370" as="sourcePoint" />
            <mxPoint x="360" y="370" as="targetPoint" />
          </mxGeometry>
        </mxCell>
        <mxCell id="o6_4bFrQqWOLxrrEGYG6-99" value="roomnumber" style="ellipse;whiteSpace=wrap;html=1;align=center;" vertex="1" parent="1">
          <mxGeometry x="-410" y="335" width="100" height="40" as="geometry" />
        </mxCell>
        <mxCell id="o6_4bFrQqWOLxrrEGYG6-100" value="isAvailable&amp;nbsp;" style="ellipse;whiteSpace=wrap;html=1;align=center;" vertex="1" parent="1">
          <mxGeometry x="-410" y="390" width="100" height="40" as="geometry" />
        </mxCell>
        <mxCell id="o6_4bFrQqWOLxrrEGYG6-101" value="" style="endArrow=none;html=1;rounded=0;exitX=1;exitY=0.5;exitDx=0;exitDy=0;entryX=0.25;entryY=0;entryDx=0;entryDy=0;" edge="1" parent="1" source="o6_4bFrQqWOLxrrEGYG6-100" target="o6_4bFrQqWOLxrrEGYG6-71">
          <mxGeometry relative="1" as="geometry">
            <mxPoint x="200" y="370" as="sourcePoint" />
            <mxPoint x="360" y="370" as="targetPoint" />
          </mxGeometry>
        </mxCell>
        <mxCell id="o6_4bFrQqWOLxrrEGYG6-102" value="" style="endArrow=none;html=1;rounded=0;exitX=1;exitY=0.5;exitDx=0;exitDy=0;entryX=0;entryY=0.5;entryDx=0;entryDy=0;" edge="1" parent="1" source="o6_4bFrQqWOLxrrEGYG6-99" target="o6_4bFrQqWOLxrrEGYG6-15">
          <mxGeometry relative="1" as="geometry">
            <mxPoint x="200" y="370" as="sourcePoint" />
            <mxPoint x="360" y="370" as="targetPoint" />
          </mxGeometry>
        </mxCell>
        <mxCell id="o6_4bFrQqWOLxrrEGYG6-104" value="user_id" style="ellipse;whiteSpace=wrap;html=1;align=center;fontStyle=4;" vertex="1" parent="1">
          <mxGeometry x="-370" y="680" width="100" height="40" as="geometry" />
        </mxCell>
        <mxCell id="o6_4bFrQqWOLxrrEGYG6-105" value="username" style="ellipse;whiteSpace=wrap;html=1;align=center;" vertex="1" parent="1">
          <mxGeometry x="-380" y="620" width="100" height="40" as="geometry" />
        </mxCell>
        <mxCell id="o6_4bFrQqWOLxrrEGYG6-106" value="password" style="ellipse;whiteSpace=wrap;html=1;align=center;" vertex="1" parent="1">
          <mxGeometry x="-350" y="560" width="100" height="40" as="geometry" />
        </mxCell>
        <mxCell id="o6_4bFrQqWOLxrrEGYG6-107" value="role" style="ellipse;whiteSpace=wrap;html=1;align=center;" vertex="1" parent="1">
          <mxGeometry x="-280" y="730" width="100" height="40" as="geometry" />
        </mxCell>
        <mxCell id="o6_4bFrQqWOLxrrEGYG6-108" value="" style="endArrow=none;html=1;rounded=0;exitX=1;exitY=0.5;exitDx=0;exitDy=0;entryX=0.25;entryY=0;entryDx=0;entryDy=0;" edge="1" parent="1" source="o6_4bFrQqWOLxrrEGYG6-106" target="o6_4bFrQqWOLxrrEGYG6-18">
          <mxGeometry relative="1" as="geometry">
            <mxPoint x="200" y="370" as="sourcePoint" />
            <mxPoint x="360" y="370" as="targetPoint" />
          </mxGeometry>
        </mxCell>
        <mxCell id="o6_4bFrQqWOLxrrEGYG6-109" value="" style="endArrow=none;html=1;rounded=0;exitX=1;exitY=0.5;exitDx=0;exitDy=0;entryX=0;entryY=0.5;entryDx=0;entryDy=0;" edge="1" parent="1" source="o6_4bFrQqWOLxrrEGYG6-105" target="o6_4bFrQqWOLxrrEGYG6-18">
          <mxGeometry relative="1" as="geometry">
            <mxPoint x="200" y="370" as="sourcePoint" />
            <mxPoint x="360" y="370" as="targetPoint" />
          </mxGeometry>
        </mxCell>
        <mxCell id="o6_4bFrQqWOLxrrEGYG6-110" value="" style="endArrow=none;html=1;rounded=0;exitX=1;exitY=0.5;exitDx=0;exitDy=0;entryX=0;entryY=1;entryDx=0;entryDy=0;" edge="1" parent="1" source="o6_4bFrQqWOLxrrEGYG6-104" target="o6_4bFrQqWOLxrrEGYG6-18">
          <mxGeometry relative="1" as="geometry">
            <mxPoint x="200" y="370" as="sourcePoint" />
            <mxPoint x="360" y="370" as="targetPoint" />
          </mxGeometry>
        </mxCell>
        <mxCell id="o6_4bFrQqWOLxrrEGYG6-111" value="" style="endArrow=none;html=1;rounded=0;exitX=1;exitY=0.5;exitDx=0;exitDy=0;entryX=0.5;entryY=1;entryDx=0;entryDy=0;" edge="1" parent="1" source="o6_4bFrQqWOLxrrEGYG6-107" target="o6_4bFrQqWOLxrrEGYG6-18">
          <mxGeometry relative="1" as="geometry">
            <mxPoint x="200" y="370" as="sourcePoint" />
            <mxPoint x="360" y="370" as="targetPoint" />
          </mxGeometry>
        </mxCell>
        <mxCell id="o6_4bFrQqWOLxrrEGYG6-114" value="type" style="ellipse;whiteSpace=wrap;html=1;align=center;" vertex="1" parent="1">
          <mxGeometry x="-400" y="270" width="100" height="40" as="geometry" />
        </mxCell>
        <mxCell id="o6_4bFrQqWOLxrrEGYG6-115" value="" style="endArrow=none;html=1;rounded=0;entryX=0;entryY=0.25;entryDx=0;entryDy=0;" edge="1" parent="1" source="o6_4bFrQqWOLxrrEGYG6-114" target="o6_4bFrQqWOLxrrEGYG6-15">
          <mxGeometry relative="1" as="geometry">
            <mxPoint x="200" y="370" as="sourcePoint" />
            <mxPoint x="-180" y="310" as="targetPoint" />
          </mxGeometry>
        </mxCell>
        <mxCell id="o6_4bFrQqWOLxrrEGYG6-116" value="biilID" style="ellipse;whiteSpace=wrap;html=1;align=center;fontStyle=4;" vertex="1" parent="1">
          <mxGeometry x="500" y="630" width="100" height="40" as="geometry" />
        </mxCell>
        <mxCell id="o6_4bFrQqWOLxrrEGYG6-117" value="" style="endArrow=none;html=1;rounded=0;entryX=0.5;entryY=0;entryDx=0;entryDy=0;exitX=1;exitY=1;exitDx=0;exitDy=0;" edge="1" parent="1" source="o6_4bFrQqWOLxrrEGYG6-16" target="o6_4bFrQqWOLxrrEGYG6-116">
          <mxGeometry relative="1" as="geometry">
            <mxPoint x="200" y="370" as="sourcePoint" />
            <mxPoint x="360" y="370" as="targetPoint" />
          </mxGeometry>
        </mxCell>
        <mxCell id="o6_4bFrQqWOLxrrEGYG6-118" value="total cost" style="ellipse;whiteSpace=wrap;html=1;align=center;" vertex="1" parent="1">
          <mxGeometry x="390" y="640" width="100" height="40" as="geometry" />
        </mxCell>
        <mxCell id="o6_4bFrQqWOLxrrEGYG6-119" value="sevices" style="ellipse;whiteSpace=wrap;html=1;align=center;" vertex="1" parent="1">
          <mxGeometry x="580" y="550" width="100" height="40" as="geometry" />
        </mxCell>
        <mxCell id="o6_4bFrQqWOLxrrEGYG6-120" value="date&amp;nbsp;" style="ellipse;whiteSpace=wrap;html=1;align=center;" vertex="1" parent="1">
          <mxGeometry x="290" y="605" width="100" height="40" as="geometry" />
        </mxCell>
        <mxCell id="o6_4bFrQqWOLxrrEGYG6-121" value="" style="endArrow=none;html=1;rounded=0;exitX=1;exitY=0;exitDx=0;exitDy=0;entryX=0.25;entryY=1;entryDx=0;entryDy=0;" edge="1" parent="1" source="o6_4bFrQqWOLxrrEGYG6-120" target="o6_4bFrQqWOLxrrEGYG6-16">
          <mxGeometry relative="1" as="geometry">
            <mxPoint x="200" y="370" as="sourcePoint" />
            <mxPoint x="360" y="370" as="targetPoint" />
          </mxGeometry>
        </mxCell>
        <mxCell id="o6_4bFrQqWOLxrrEGYG6-122" value="" style="endArrow=none;html=1;rounded=0;exitX=0.41;exitY=0.033;exitDx=0;exitDy=0;exitPerimeter=0;entryX=0.5;entryY=1;entryDx=0;entryDy=0;" edge="1" parent="1" source="o6_4bFrQqWOLxrrEGYG6-118" target="o6_4bFrQqWOLxrrEGYG6-16">
          <mxGeometry relative="1" as="geometry">
            <mxPoint x="200" y="370" as="sourcePoint" />
            <mxPoint x="360" y="370" as="targetPoint" />
          </mxGeometry>
        </mxCell>
        <mxCell id="o6_4bFrQqWOLxrrEGYG6-123" value="" style="endArrow=none;html=1;rounded=0;exitX=0.5;exitY=0;exitDx=0;exitDy=0;entryX=1;entryY=0.5;entryDx=0;entryDy=0;" edge="1" parent="1" source="o6_4bFrQqWOLxrrEGYG6-119" target="o6_4bFrQqWOLxrrEGYG6-16">
          <mxGeometry relative="1" as="geometry">
            <mxPoint x="200" y="370" as="sourcePoint" />
            <mxPoint x="360" y="370" as="targetPoint" />
          </mxGeometry>
        </mxCell>
        <mxCell id="o6_4bFrQqWOLxrrEGYG6-124" value="staffid" style="ellipse;whiteSpace=wrap;html=1;align=center;fontStyle=4;" vertex="1" parent="1">
          <mxGeometry x="-400" y="470" width="100" height="40" as="geometry" />
        </mxCell>
        <mxCell id="o6_4bFrQqWOLxrrEGYG6-125" value="departmentid(FK)" style="ellipse;whiteSpace=wrap;html=1;align=center;" vertex="1" parent="1">
          <mxGeometry x="-270" y="490" width="100" height="40" as="geometry" />
        </mxCell>
        <mxCell id="o6_4bFrQqWOLxrrEGYG6-126" value="name" style="ellipse;whiteSpace=wrap;html=1;align=center;" vertex="1" parent="1">
          <mxGeometry x="-320" y="430" width="100" height="40" as="geometry" />
        </mxCell>
        <mxCell id="o6_4bFrQqWOLxrrEGYG6-127" value="role" style="ellipse;whiteSpace=wrap;html=1;align=center;" vertex="1" parent="1">
          <mxGeometry x="-60" y="520" width="100" height="40" as="geometry" />
        </mxCell>
        <mxCell id="o6_4bFrQqWOLxrrEGYG6-128" value="shift" style="ellipse;whiteSpace=wrap;html=1;align=center;" vertex="1" parent="1">
          <mxGeometry x="-490" y="435" width="100" height="40" as="geometry" />
        </mxCell>
        <mxCell id="o6_4bFrQqWOLxrrEGYG6-129" value="" style="endArrow=none;html=1;rounded=0;exitX=1;exitY=0.5;exitDx=0;exitDy=0;entryX=0;entryY=0.75;entryDx=0;entryDy=0;" edge="1" parent="1" source="o6_4bFrQqWOLxrrEGYG6-126" target="o6_4bFrQqWOLxrrEGYG6-17">
          <mxGeometry relative="1" as="geometry">
            <mxPoint x="200" y="370" as="sourcePoint" />
            <mxPoint x="360" y="370" as="targetPoint" />
          </mxGeometry>
        </mxCell>
        <mxCell id="o6_4bFrQqWOLxrrEGYG6-130" value="" style="endArrow=none;html=1;rounded=0;exitX=1;exitY=0.5;exitDx=0;exitDy=0;entryX=0.25;entryY=1;entryDx=0;entryDy=0;" edge="1" parent="1" source="o6_4bFrQqWOLxrrEGYG6-125" target="o6_4bFrQqWOLxrrEGYG6-17">
          <mxGeometry relative="1" as="geometry">
            <mxPoint x="200" y="370" as="sourcePoint" />
            <mxPoint x="360" y="370" as="targetPoint" />
          </mxGeometry>
        </mxCell>
        <mxCell id="o6_4bFrQqWOLxrrEGYG6-133" value="" style="endArrow=none;html=1;rounded=0;entryX=1;entryY=0.5;entryDx=0;entryDy=0;exitX=0;exitY=1;exitDx=0;exitDy=0;" edge="1" parent="1" source="o6_4bFrQqWOLxrrEGYG6-17" target="o6_4bFrQqWOLxrrEGYG6-124">
          <mxGeometry relative="1" as="geometry">
            <mxPoint x="200" y="370" as="sourcePoint" />
            <mxPoint x="360" y="370" as="targetPoint" />
          </mxGeometry>
        </mxCell>
        <mxCell id="o6_4bFrQqWOLxrrEGYG6-136" value="" style="endArrow=none;html=1;rounded=0;exitX=1;exitY=1;exitDx=0;exitDy=0;entryX=0.5;entryY=0;entryDx=0;entryDy=0;" edge="1" parent="1" source="o6_4bFrQqWOLxrrEGYG6-17" target="o6_4bFrQqWOLxrrEGYG6-127">
          <mxGeometry relative="1" as="geometry">
            <mxPoint x="200" y="370" as="sourcePoint" />
            <mxPoint x="360" y="370" as="targetPoint" />
          </mxGeometry>
        </mxCell>
        <mxCell id="o6_4bFrQqWOLxrrEGYG6-137" value="" style="endArrow=none;html=1;rounded=0;exitX=1;exitY=0.5;exitDx=0;exitDy=0;entryX=0;entryY=0.25;entryDx=0;entryDy=0;" edge="1" parent="1" source="o6_4bFrQqWOLxrrEGYG6-128" target="o6_4bFrQqWOLxrrEGYG6-17">
          <mxGeometry relative="1" as="geometry">
            <mxPoint x="200" y="370" as="sourcePoint" />
            <mxPoint x="360" y="370" as="targetPoint" />
          </mxGeometry>
        </mxCell>
        <mxCell id="o6_4bFrQqWOLxrrEGYG6-138" value="pateintID (fk)" style="ellipse;whiteSpace=wrap;html=1;align=center;" vertex="1" parent="1">
          <mxGeometry x="590" y="480" width="100" height="40" as="geometry" />
        </mxCell>
        <mxCell id="o6_4bFrQqWOLxrrEGYG6-139" value="" style="endArrow=none;html=1;rounded=0;exitX=0;exitY=0.5;exitDx=0;exitDy=0;entryX=1;entryY=0.25;entryDx=0;entryDy=0;" edge="1" parent="1" source="o6_4bFrQqWOLxrrEGYG6-138" target="o6_4bFrQqWOLxrrEGYG6-16">
          <mxGeometry relative="1" as="geometry">
            <mxPoint x="200" y="370" as="sourcePoint" />
            <mxPoint x="360" y="370" as="targetPoint" />
          </mxGeometry>
        </mxCell>
        <mxCell id="o6_4bFrQqWOLxrrEGYG6-140" value="recordid" style="ellipse;whiteSpace=wrap;html=1;align=center;fontStyle=4;" vertex="1" parent="1">
          <mxGeometry x="570" y="300" width="100" height="40" as="geometry" />
        </mxCell>
        <mxCell id="o6_4bFrQqWOLxrrEGYG6-141" value="" style="endArrow=none;html=1;rounded=0;entryX=0;entryY=0.5;entryDx=0;entryDy=0;exitX=1;exitY=0.5;exitDx=0;exitDy=0;" edge="1" parent="1" source="o6_4bFrQqWOLxrrEGYG6-20" target="o6_4bFrQqWOLxrrEGYG6-140">
          <mxGeometry relative="1" as="geometry">
            <mxPoint x="200" y="370" as="sourcePoint" />
            <mxPoint x="360" y="370" as="targetPoint" />
          </mxGeometry>
        </mxCell>
        <mxCell id="o6_4bFrQqWOLxrrEGYG6-142" value="patientid(fk)" style="ellipse;whiteSpace=wrap;html=1;align=center;" vertex="1" parent="1">
          <mxGeometry x="570" y="360" width="100" height="40" as="geometry" />
        </mxCell>
        <mxCell id="o6_4bFrQqWOLxrrEGYG6-143" value="" style="endArrow=none;html=1;rounded=0;exitX=0;exitY=0.5;exitDx=0;exitDy=0;entryX=1;entryY=0.75;entryDx=0;entryDy=0;" edge="1" parent="1" source="o6_4bFrQqWOLxrrEGYG6-142" target="o6_4bFrQqWOLxrrEGYG6-20">
          <mxGeometry relative="1" as="geometry">
            <mxPoint x="200" y="370" as="sourcePoint" />
            <mxPoint x="360" y="370" as="targetPoint" />
          </mxGeometry>
        </mxCell>
        <mxCell id="o6_4bFrQqWOLxrrEGYG6-144" value="doctorid(fk)" style="ellipse;whiteSpace=wrap;html=1;align=center;" vertex="1" parent="1">
          <mxGeometry x="610" y="250" width="100" height="40" as="geometry" />
        </mxCell>
        <mxCell id="o6_4bFrQqWOLxrrEGYG6-145" value="" style="endArrow=none;html=1;rounded=0;entryX=0;entryY=0.5;entryDx=0;entryDy=0;exitX=1;exitY=0.25;exitDx=0;exitDy=0;" edge="1" parent="1" source="o6_4bFrQqWOLxrrEGYG6-20" target="o6_4bFrQqWOLxrrEGYG6-144">
          <mxGeometry relative="1" as="geometry">
            <mxPoint x="200" y="370" as="sourcePoint" />
            <mxPoint x="360" y="370" as="targetPoint" />
          </mxGeometry>
        </mxCell>
        <mxCell id="o6_4bFrQqWOLxrrEGYG6-146" value="diagnosis&amp;nbsp;" style="ellipse;whiteSpace=wrap;html=1;align=center;" vertex="1" parent="1">
          <mxGeometry x="230" y="350" width="100" height="40" as="geometry" />
        </mxCell>
        <mxCell id="o6_4bFrQqWOLxrrEGYG6-147" value="" style="endArrow=none;html=1;rounded=0;entryX=0.363;entryY=1.033;entryDx=0;entryDy=0;entryPerimeter=0;exitX=1;exitY=1;exitDx=0;exitDy=0;" edge="1" parent="1" source="o6_4bFrQqWOLxrrEGYG6-146" target="o6_4bFrQqWOLxrrEGYG6-20">
          <mxGeometry relative="1" as="geometry">
            <mxPoint x="200" y="370" as="sourcePoint" />
            <mxPoint x="360" y="370" as="targetPoint" />
          </mxGeometry>
        </mxCell>
        <mxCell id="o6_4bFrQqWOLxrrEGYG6-149" value="treatment" style="ellipse;whiteSpace=wrap;html=1;align=center;" vertex="1" parent="1">
          <mxGeometry x="520" y="230" width="100" height="40" as="geometry" />
        </mxCell>
        <mxCell id="o6_4bFrQqWOLxrrEGYG6-150" value="" style="endArrow=none;html=1;rounded=0;entryX=0.5;entryY=1;entryDx=0;entryDy=0;" edge="1" parent="1" target="o6_4bFrQqWOLxrrEGYG6-149">
          <mxGeometry relative="1" as="geometry">
            <mxPoint x="500" y="310" as="sourcePoint" />
            <mxPoint x="360" y="370" as="targetPoint" />
          </mxGeometry>
        </mxCell>
        <mxCell id="o6_4bFrQqWOLxrrEGYG6-151" value="date" style="ellipse;whiteSpace=wrap;html=1;align=center;" vertex="1" parent="1">
          <mxGeometry x="510" y="420" width="100" height="40" as="geometry" />
        </mxCell>
        <mxCell id="o6_4bFrQqWOLxrrEGYG6-152" value="" style="endArrow=none;html=1;rounded=0;entryX=1;entryY=0.75;entryDx=0;entryDy=0;exitX=0.5;exitY=0;exitDx=0;exitDy=0;" edge="1" parent="1" source="o6_4bFrQqWOLxrrEGYG6-151" target="o6_4bFrQqWOLxrrEGYG6-20">
          <mxGeometry relative="1" as="geometry">
            <mxPoint x="200" y="370" as="sourcePoint" />
            <mxPoint x="360" y="370" as="targetPoint" />
          </mxGeometry>
        </mxCell>
        <mxCell id="o6_4bFrQqWOLxrrEGYG6-153" value="name&amp;nbsp;" style="ellipse;whiteSpace=wrap;html=1;align=center;" vertex="1" parent="1">
          <mxGeometry x="600" y="20" width="100" height="40" as="geometry" />
        </mxCell>
        <mxCell id="o6_4bFrQqWOLxrrEGYG6-154" value="date" style="ellipse;whiteSpace=wrap;html=1;align=center;" vertex="1" parent="1">
          <mxGeometry x="590" y="85" width="100" height="40" as="geometry" />
        </mxCell>
        <mxCell id="o6_4bFrQqWOLxrrEGYG6-155" value="gender" style="ellipse;whiteSpace=wrap;html=1;align=center;" vertex="1" parent="1">
          <mxGeometry x="570" y="135" width="100" height="40" as="geometry" />
        </mxCell>
        <mxCell id="o6_4bFrQqWOLxrrEGYG6-156" value="phone" style="ellipse;whiteSpace=wrap;html=1;align=center;" vertex="1" parent="1">
          <mxGeometry x="310" y="160" width="100" height="40" as="geometry" />
        </mxCell>
        <mxCell id="o6_4bFrQqWOLxrrEGYG6-157" value="email" style="ellipse;whiteSpace=wrap;html=1;align=center;" vertex="1" parent="1">
          <mxGeometry x="290" y="90" width="100" height="40" as="geometry" />
        </mxCell>
        <mxCell id="o6_4bFrQqWOLxrrEGYG6-158" value="patient_id" style="ellipse;whiteSpace=wrap;html=1;align=center;fontStyle=4;" vertex="1" parent="1">
          <mxGeometry x="470" y="160" width="80" height="40" as="geometry" />
        </mxCell>
        <mxCell id="o6_4bFrQqWOLxrrEGYG6-159" value="" style="endArrow=none;html=1;rounded=0;entryX=1;entryY=0.5;entryDx=0;entryDy=0;exitX=0;exitY=0.5;exitDx=0;exitDy=0;" edge="1" parent="1" source="o6_4bFrQqWOLxrrEGYG6-154" target="o6_4bFrQqWOLxrrEGYG6-21">
          <mxGeometry relative="1" as="geometry">
            <mxPoint x="200" y="370" as="sourcePoint" />
            <mxPoint x="360" y="370" as="targetPoint" />
          </mxGeometry>
        </mxCell>
        <mxCell id="o6_4bFrQqWOLxrrEGYG6-160" value="" style="endArrow=none;html=1;rounded=0;exitX=0.75;exitY=1;exitDx=0;exitDy=0;" edge="1" parent="1" source="o6_4bFrQqWOLxrrEGYG6-64" target="o6_4bFrQqWOLxrrEGYG6-153">
          <mxGeometry relative="1" as="geometry">
            <mxPoint x="200" y="370" as="sourcePoint" />
            <mxPoint x="360" y="370" as="targetPoint" />
          </mxGeometry>
        </mxCell>
        <mxCell id="o6_4bFrQqWOLxrrEGYG6-161" value="" style="endArrow=none;html=1;rounded=0;exitX=0.25;exitY=1;exitDx=0;exitDy=0;entryX=1;entryY=0;entryDx=0;entryDy=0;" edge="1" parent="1" source="o6_4bFrQqWOLxrrEGYG6-21" target="o6_4bFrQqWOLxrrEGYG6-156">
          <mxGeometry relative="1" as="geometry">
            <mxPoint x="200" y="370" as="sourcePoint" />
            <mxPoint x="360" y="370" as="targetPoint" />
          </mxGeometry>
        </mxCell>
        <mxCell id="o6_4bFrQqWOLxrrEGYG6-162" value="" style="endArrow=none;html=1;rounded=0;entryX=1;entryY=0.5;entryDx=0;entryDy=0;exitX=0;exitY=0.25;exitDx=0;exitDy=0;" edge="1" parent="1" source="o6_4bFrQqWOLxrrEGYG6-21" target="o6_4bFrQqWOLxrrEGYG6-157">
          <mxGeometry relative="1" as="geometry">
            <mxPoint x="200" y="370" as="sourcePoint" />
            <mxPoint x="360" y="370" as="targetPoint" />
          </mxGeometry>
        </mxCell>
        <mxCell id="o6_4bFrQqWOLxrrEGYG6-163" value="" style="endArrow=none;html=1;rounded=0;entryX=1;entryY=0.75;entryDx=0;entryDy=0;exitX=0;exitY=0;exitDx=0;exitDy=0;" edge="1" parent="1" source="o6_4bFrQqWOLxrrEGYG6-155" target="o6_4bFrQqWOLxrrEGYG6-21">
          <mxGeometry relative="1" as="geometry">
            <mxPoint x="200" y="370" as="sourcePoint" />
            <mxPoint x="360" y="370" as="targetPoint" />
          </mxGeometry>
        </mxCell>
        <mxCell id="o6_4bFrQqWOLxrrEGYG6-164" value="" style="endArrow=none;html=1;rounded=0;exitX=0.75;exitY=0;exitDx=0;exitDy=0;entryX=1;entryY=0;entryDx=0;entryDy=0;" edge="1" parent="1" source="o6_4bFrQqWOLxrrEGYG6-83" target="o6_4bFrQqWOLxrrEGYG6-158">
          <mxGeometry relative="1" as="geometry">
            <mxPoint x="200" y="370" as="sourcePoint" />
            <mxPoint x="360" y="370" as="targetPoint" />
          </mxGeometry>
        </mxCell>
        <mxCell id="o6_4bFrQqWOLxrrEGYG6-165" value="appointment_id" style="ellipse;whiteSpace=wrap;html=1;align=center;fontStyle=4;" vertex="1" parent="1">
          <mxGeometry x="230" y="-140" width="100" height="40" as="geometry" />
        </mxCell>
        <mxCell id="o6_4bFrQqWOLxrrEGYG6-166" value="" style="endArrow=none;html=1;rounded=0;exitX=0.5;exitY=1;exitDx=0;exitDy=0;entryX=0.5;entryY=0;entryDx=0;entryDy=0;" edge="1" parent="1" source="o6_4bFrQqWOLxrrEGYG6-165" target="o6_4bFrQqWOLxrrEGYG6-28">
          <mxGeometry relative="1" as="geometry">
            <mxPoint x="200" y="370" as="sourcePoint" />
            <mxPoint x="360" y="370" as="targetPoint" />
          </mxGeometry>
        </mxCell>
        <mxCell id="o6_4bFrQqWOLxrrEGYG6-167" value="patientid(fk)" style="ellipse;whiteSpace=wrap;html=1;align=center;" vertex="1" parent="1">
          <mxGeometry x="360" y="-150" width="100" height="40" as="geometry" />
        </mxCell>
        <mxCell id="o6_4bFrQqWOLxrrEGYG6-168" value="doctorid" style="ellipse;whiteSpace=wrap;html=1;align=center;" vertex="1" parent="1">
          <mxGeometry x="120" y="-120" width="100" height="40" as="geometry" />
        </mxCell>
        <mxCell id="o6_4bFrQqWOLxrrEGYG6-169" value="datetime" style="ellipse;whiteSpace=wrap;html=1;align=center;" vertex="1" parent="1">
          <mxGeometry x="440" y="-110" width="100" height="40" as="geometry" />
        </mxCell>
        <mxCell id="o6_4bFrQqWOLxrrEGYG6-170" value="" style="endArrow=none;html=1;rounded=0;entryX=0.5;entryY=1;entryDx=0;entryDy=0;exitX=1;exitY=0;exitDx=0;exitDy=0;" edge="1" parent="1" source="o6_4bFrQqWOLxrrEGYG6-28" target="o6_4bFrQqWOLxrrEGYG6-167">
          <mxGeometry relative="1" as="geometry">
            <mxPoint x="200" y="370" as="sourcePoint" />
            <mxPoint x="360" y="370" as="targetPoint" />
          </mxGeometry>
        </mxCell>
        <mxCell id="o6_4bFrQqWOLxrrEGYG6-171" value="" style="endArrow=none;html=1;rounded=0;entryX=0.5;entryY=1;entryDx=0;entryDy=0;exitX=0;exitY=0.5;exitDx=0;exitDy=0;" edge="1" parent="1" source="o6_4bFrQqWOLxrrEGYG6-65" target="o6_4bFrQqWOLxrrEGYG6-169">
          <mxGeometry relative="1" as="geometry">
            <mxPoint x="200" y="370" as="sourcePoint" />
            <mxPoint x="360" y="370" as="targetPoint" />
          </mxGeometry>
        </mxCell>
        <mxCell id="o6_4bFrQqWOLxrrEGYG6-172" value="" style="endArrow=none;html=1;rounded=0;exitX=1;exitY=1;exitDx=0;exitDy=0;entryX=0;entryY=0.25;entryDx=0;entryDy=0;" edge="1" parent="1" source="o6_4bFrQqWOLxrrEGYG6-168" target="o6_4bFrQqWOLxrrEGYG6-28">
          <mxGeometry relative="1" as="geometry">
            <mxPoint x="200" y="370" as="sourcePoint" />
            <mxPoint x="360" y="370" as="targetPoint" />
          </mxGeometry>
        </mxCell>
        <mxCell id="o6_4bFrQqWOLxrrEGYG6-173" value="admissionid" style="ellipse;whiteSpace=wrap;html=1;align=center;fontStyle=4;" vertex="1" parent="1">
          <mxGeometry x="40" y="480" width="100" height="40" as="geometry" />
        </mxCell>
        <mxCell id="o6_4bFrQqWOLxrrEGYG6-174" value="" style="endArrow=none;html=1;rounded=0;entryX=0.5;entryY=0;entryDx=0;entryDy=0;exitX=0.5;exitY=1;exitDx=0;exitDy=0;" edge="1" parent="1" source="o6_4bFrQqWOLxrrEGYG6-23" target="o6_4bFrQqWOLxrrEGYG6-173">
          <mxGeometry relative="1" as="geometry">
            <mxPoint x="200" y="370" as="sourcePoint" />
            <mxPoint x="360" y="370" as="targetPoint" />
          </mxGeometry>
        </mxCell>
        <mxCell id="o6_4bFrQqWOLxrrEGYG6-175" value="Attribute" style="ellipse;whiteSpace=wrap;html=1;align=center;" vertex="1" parent="1">
          <mxGeometry x="230" y="350" width="100" height="40" as="geometry" />
        </mxCell>
        <mxCell id="o6_4bFrQqWOLxrrEGYG6-176" value="treatment" style="ellipse;shape=doubleEllipse;margin=3;whiteSpace=wrap;html=1;align=center;" vertex="1" parent="1">
          <mxGeometry x="520" y="230" width="100" height="40" as="geometry" />
        </mxCell>
        <mxCell id="o6_4bFrQqWOLxrrEGYG6-177" value="have" style="shape=rhombus;perimeter=rhombusPerimeter;whiteSpace=wrap;html=1;align=center;" vertex="1" parent="1">
          <mxGeometry x="110" y="670" width="120" height="60" as="geometry" />
        </mxCell>
        <mxCell id="o6_4bFrQqWOLxrrEGYG6-180" value="" style="edgeStyle=elbowEdgeStyle;elbow=horizontal;endArrow=classic;html=1;curved=0;rounded=0;endSize=8;startSize=8;entryX=1;entryY=0.25;entryDx=0;entryDy=0;exitX=1;exitY=0.5;exitDx=0;exitDy=0;" edge="1" parent="1" source="o6_4bFrQqWOLxrrEGYG6-177" target="o6_4bFrQqWOLxrrEGYG6-21">
          <mxGeometry width="50" height="50" relative="1" as="geometry">
            <mxPoint x="610" y="390" as="sourcePoint" />
            <mxPoint x="660" y="340" as="targetPoint" />
            <Array as="points">
              <mxPoint x="860" y="430" />
            </Array>
          </mxGeometry>
        </mxCell>
        <mxCell id="o6_4bFrQqWOLxrrEGYG6-181" value="1" style="text;html=1;align=center;verticalAlign=middle;whiteSpace=wrap;rounded=0;" vertex="1" parent="1">
          <mxGeometry x="740" y="60" width="60" height="30" as="geometry" />
        </mxCell>
        <mxCell id="o6_4bFrQqWOLxrrEGYG6-184" value="" style="shape=link;html=1;rounded=0;exitX=0.5;exitY=1;exitDx=0;exitDy=0;" edge="1" parent="1" source="o6_4bFrQqWOLxrrEGYG6-23" target="o6_4bFrQqWOLxrrEGYG6-177">
          <mxGeometry relative="1" as="geometry">
            <mxPoint x="550" y="370" as="sourcePoint" />
            <mxPoint x="710" y="370" as="targetPoint" />
          </mxGeometry>
        </mxCell>
        <mxCell id="o6_4bFrQqWOLxrrEGYG6-185" value="M" style="resizable=0;html=1;whiteSpace=wrap;align=left;verticalAlign=bottom;" connectable="0" vertex="1" parent="o6_4bFrQqWOLxrrEGYG6-184">
          <mxGeometry x="-1" relative="1" as="geometry" />
        </mxCell>
        <mxCell id="o6_4bFrQqWOLxrrEGYG6-186" value="N" style="resizable=0;html=1;whiteSpace=wrap;align=right;verticalAlign=bottom;" connectable="0" vertex="1" parent="o6_4bFrQqWOLxrrEGYG6-184">
          <mxGeometry x="1" relative="1" as="geometry" />
        </mxCell>
        <mxCell id="o6_4bFrQqWOLxrrEGYG6-188" value="doctorID" style="ellipse;whiteSpace=wrap;html=1;align=center;fontStyle=4;" vertex="1" parent="1">
          <mxGeometry x="-10" y="175" width="100" height="40" as="geometry" />
        </mxCell>
        <mxCell id="o6_4bFrQqWOLxrrEGYG6-189" value="" style="endArrow=none;html=1;rounded=0;entryX=0.97;entryY=0.292;entryDx=0;entryDy=0;entryPerimeter=0;exitX=0.25;exitY=1;exitDx=0;exitDy=0;" edge="1" parent="1" source="o6_4bFrQqWOLxrrEGYG6-22" target="o6_4bFrQqWOLxrrEGYG6-188">
          <mxGeometry relative="1" as="geometry">
            <mxPoint x="190" y="260" as="sourcePoint" />
            <mxPoint x="350" y="260" as="targetPoint" />
          </mxGeometry>
        </mxCell>
        <mxCell id="o6_4bFrQqWOLxrrEGYG6-190" value="name" style="ellipse;whiteSpace=wrap;html=1;align=center;" vertex="1" parent="1">
          <mxGeometry x="70" y="215" width="70" height="25" as="geometry" />
        </mxCell>
        <mxCell id="o6_4bFrQqWOLxrrEGYG6-191" value="" style="endArrow=none;html=1;rounded=0;entryX=1;entryY=0;entryDx=0;entryDy=0;exitX=0.25;exitY=1;exitDx=0;exitDy=0;" edge="1" parent="1" source="o6_4bFrQqWOLxrrEGYG6-22" target="o6_4bFrQqWOLxrrEGYG6-190">
          <mxGeometry relative="1" as="geometry">
            <mxPoint x="190" y="260" as="sourcePoint" />
            <mxPoint x="350" y="260" as="targetPoint" />
          </mxGeometry>
        </mxCell>
        <mxCell id="o6_4bFrQqWOLxrrEGYG6-192" value="specilization" style="ellipse;whiteSpace=wrap;html=1;align=center;" vertex="1" parent="1">
          <mxGeometry x="10" y="15" width="100" height="40" as="geometry" />
        </mxCell>
        <mxCell id="o6_4bFrQqWOLxrrEGYG6-193" value="" style="endArrow=none;html=1;rounded=0;entryX=0.7;entryY=0.875;entryDx=0;entryDy=0;entryPerimeter=0;exitX=0.25;exitY=0;exitDx=0;exitDy=0;" edge="1" parent="1" source="o6_4bFrQqWOLxrrEGYG6-22" target="o6_4bFrQqWOLxrrEGYG6-192">
          <mxGeometry relative="1" as="geometry">
            <mxPoint x="190" y="260" as="sourcePoint" />
            <mxPoint x="350" y="260" as="targetPoint" />
          </mxGeometry>
        </mxCell>
        <mxCell id="o6_4bFrQqWOLxrrEGYG6-194" value="phone" style="ellipse;whiteSpace=wrap;html=1;align=center;" vertex="1" parent="1">
          <mxGeometry x="10" y="135" width="80" height="25" as="geometry" />
        </mxCell>
        <mxCell id="o6_4bFrQqWOLxrrEGYG6-195" value="" style="endArrow=none;html=1;rounded=0;entryX=1;entryY=0.5;entryDx=0;entryDy=0;exitX=0;exitY=1;exitDx=0;exitDy=0;" edge="1" parent="1" source="o6_4bFrQqWOLxrrEGYG6-22" target="o6_4bFrQqWOLxrrEGYG6-194">
          <mxGeometry relative="1" as="geometry">
            <mxPoint x="190" y="260" as="sourcePoint" />
            <mxPoint x="350" y="260" as="targetPoint" />
          </mxGeometry>
        </mxCell>
        <mxCell id="o6_4bFrQqWOLxrrEGYG6-196" value="email" style="ellipse;whiteSpace=wrap;html=1;align=center;" vertex="1" parent="1">
          <mxGeometry x="190" y="165" width="100" height="40" as="geometry" />
        </mxCell>
        <mxCell id="o6_4bFrQqWOLxrrEGYG6-198" value="patient_id(FK" style="ellipse;whiteSpace=wrap;html=1;align=center;" vertex="1" parent="1">
          <mxGeometry x="190" y="500" width="100" height="40" as="geometry" />
        </mxCell>
        <mxCell id="o6_4bFrQqWOLxrrEGYG6-199" value="" style="endArrow=none;html=1;rounded=0;exitX=0.5;exitY=0;exitDx=0;exitDy=0;entryX=1;entryY=1;entryDx=0;entryDy=0;" edge="1" parent="1" source="o6_4bFrQqWOLxrrEGYG6-198" target="o6_4bFrQqWOLxrrEGYG6-23">
          <mxGeometry relative="1" as="geometry">
            <mxPoint x="270" y="490" as="sourcePoint" />
            <mxPoint x="430" y="490" as="targetPoint" />
          </mxGeometry>
        </mxCell>
        <mxCell id="o6_4bFrQqWOLxrrEGYG6-200" value="roomnumber(fk)" style="ellipse;whiteSpace=wrap;html=1;align=center;" vertex="1" parent="1">
          <mxGeometry x="260" y="455" width="100" height="40" as="geometry" />
        </mxCell>
        <mxCell id="o6_4bFrQqWOLxrrEGYG6-201" value="" style="endArrow=none;html=1;rounded=0;exitX=0;exitY=0.5;exitDx=0;exitDy=0;entryX=1;entryY=0.75;entryDx=0;entryDy=0;" edge="1" parent="1" source="o6_4bFrQqWOLxrrEGYG6-200" target="o6_4bFrQqWOLxrrEGYG6-23">
          <mxGeometry relative="1" as="geometry">
            <mxPoint x="270" y="490" as="sourcePoint" />
            <mxPoint x="430" y="490" as="targetPoint" />
          </mxGeometry>
        </mxCell>
        <mxCell id="o6_4bFrQqWOLxrrEGYG6-204" value="date" style="ellipse;whiteSpace=wrap;html=1;align=center;" vertex="1" parent="1">
          <mxGeometry x="110" y="370" width="100" height="40" as="geometry" />
        </mxCell>
        <mxCell id="o6_4bFrQqWOLxrrEGYG6-206" value="in" style="ellipse;whiteSpace=wrap;html=1;align=center;" vertex="1" parent="1">
          <mxGeometry x="30" y="320" width="60" height="40" as="geometry" />
        </mxCell>
        <mxCell id="o6_4bFrQqWOLxrrEGYG6-207" value="out" style="ellipse;whiteSpace=wrap;html=1;align=center;" vertex="1" parent="1">
          <mxGeometry x="130" y="325" width="70" height="35" as="geometry" />
        </mxCell>
        <mxCell id="o6_4bFrQqWOLxrrEGYG6-208" value="" style="endArrow=none;html=1;rounded=0;entryX=1;entryY=1;entryDx=0;entryDy=0;exitX=0;exitY=0;exitDx=0;exitDy=0;" edge="1" parent="1" source="o6_4bFrQqWOLxrrEGYG6-204" target="o6_4bFrQqWOLxrrEGYG6-206">
          <mxGeometry relative="1" as="geometry">
            <mxPoint x="270" y="490" as="sourcePoint" />
            <mxPoint x="430" y="490" as="targetPoint" />
          </mxGeometry>
        </mxCell>
        <mxCell id="o6_4bFrQqWOLxrrEGYG6-209" value="" style="endArrow=none;html=1;rounded=0;entryX=1;entryY=1;entryDx=0;entryDy=0;exitX=1;exitY=0;exitDx=0;exitDy=0;" edge="1" parent="1" source="o6_4bFrQqWOLxrrEGYG6-204" target="o6_4bFrQqWOLxrrEGYG6-207">
          <mxGeometry relative="1" as="geometry">
            <mxPoint x="270" y="490" as="sourcePoint" />
            <mxPoint x="430" y="490" as="targetPoint" />
          </mxGeometry>
        </mxCell>
        <mxCell id="o6_4bFrQqWOLxrrEGYG6-210" value="" style="endArrow=none;html=1;rounded=0;entryX=0.44;entryY=0.95;entryDx=0;entryDy=0;entryPerimeter=0;exitX=0.5;exitY=0;exitDx=0;exitDy=0;exitPerimeter=0;" edge="1" parent="1" source="o6_4bFrQqWOLxrrEGYG6-23" target="o6_4bFrQqWOLxrrEGYG6-204">
          <mxGeometry relative="1" as="geometry">
            <mxPoint x="270" y="490" as="sourcePoint" />
            <mxPoint x="430" y="490" as="targetPoint" />
          </mxGeometry>
        </mxCell>
      </root>
    </mxGraphModel>
  </diagram>
</mxfile>
